<?xml version="1.0" encoding="utf-8"?>
<!-- Generator: Adobe Illustrator 21.0.0, SVG Export Plug-In . SVG Version: 6.00 Build 0)  -->
<svg version="1.1" id="Layer_1" xmlns="http://www.w3.org/2000/svg" xmlns:xlink="http://www.w3.org/1999/xlink" x="0px" y="0px"
	 viewBox="0 0 200 95.2" style="enable-background:new 0 0 200 95.2;" xml:space="preserve">
<style type="text/css">
	.st0{fill:#02B396;}
	.st1{fill:#02655F;}
	.st2{fill:#FFFFFF;}
</style>
<g>
	<polygon class="st0" points="0,68.6 7.6,68.6 7.6,40.3 22.7,68.6 31.4,68.6 31.4,31 24,31 24,57.5 9.6,31 0,31 	"/>
	<polygon class="st0" points="173,68.8 179.6,68.8 179.6,44.5 192.5,68.8 200,68.8 200,36.4 193.6,36.4 193.6,59.2 181.3,36.4 
		173,36.4 	"/>
	<path class="st0" d="M44.1,57.6h15.4v-5.5H44.1c0-5.7,3.6-5.5,3.6-5.5h11.9v-5.4h-13c0,0-9.7,0.4-9.7,13.7s9,13.2,9,13.2h13.8V63
		H47.6C47.6,63,44.1,63,44.1,57.6z"/>
	<path class="st0" d="M123.1,68.8h8.6V55.9h18.5v-6.7h-18.2c0,0-0.8-6.4,3.9-6.4s14.3,0,14.3,0v-6.3h-15.4c0,0-11.7,0-11.7,16.2
		V68.8z"/>
	<polygon class="st0" points="156.4,68.8 162.8,68.8 162.8,38.6 163.7,38.6 163.7,46.9 165.3,46.9 165.3,36.1 153.8,36.1 
		153.8,46.9 155.4,46.9 155.4,38.6 156.4,38.6 	"/>
	<circle class="st0" cx="159.6" cy="31" r="3.9"/>
	<path class="st1" d="M0,26.2h149.6l7.9-8.1c0,0,0.4-0.6,1.2-0.6s1.2,0.6,1.2,0.6l7.2,7.1c1.6,1.6,3.8,2.7,6.1,2.9
		c0.3,0,0.5,0,0.8,0c4.6,0,7.6-3.6,7.6-3.6l9.6-9.6v13.2h8.8V0h-25.7v3.7h22.7l-18.8,18.8c0,0-2.2,2-4.2,2c-2.4,0-5.3-2.7-5.3-2.7
		l-6.8-6.8c0,0-1.3-1.3-3.1-1.3c-1.8,0-3.5,1.7-3.5,1.7l-7.5,7.5H0V26.2z"/>
	<path class="st0" d="M0,21.7h147.3l7.7-7.9c0.9-1,2.2-1.5,3.6-1.6c0,0,0,0,0.1,0c2.1,0,3.5,1.4,3.5,1.4l7.8,7.8
		c0,0,1.8,1.8,3.9,1.8s5.1-3.2,5.1-3.2l15-15h-19.9v3.6h11c0,0-0.1,0.4-0.4,0.7s-8.6,8.6-8.6,8.6s-1.6,1.6-2.3,1.6s-1.6-0.7-2.8-2
		l-5-5c-1-1-2.1-1.8-3.4-2.4c-1.2-0.6-2.7-1.2-4.2-1.2c-1.2,0-2.3,0.3-3.3,0.7c-1.3,0.5-2.4,1.4-3.4,2.3l-6.6,6.6H0V21.7z"/>
	<rect y="83.5" class="st1" width="200" height="11.7"/>
	<path class="st0" d="M106.6,40.6c0,0-13.8-0.9-13.8,14.1c0,14.9,13.8,14.1,13.8,14.1s13.5,0.5,13.5-14.1
		C120.1,40.1,106.6,40.6,106.6,40.6z M106.5,63.3c0,0-6.8,0.3-6.8-8.6s6.8-8.4,6.8-8.4s6.8-0.7,6.8,8.4S106.5,63.3,106.5,63.3z"/>
	<path class="st0" d="M73.3,41.2c0,0-11,0.5-11,13.4s9.4,13.4,9.4,13.4h10c0,5.4-3.1,5.1-3.1,5.1h-13v5.5c0,0,8.7,0,15.3,0
		s7.6-8.4,7.6-8.4v-29H73.3z M81.5,62.9h-7c0,0-5.2-0.1-5.2-8.2c0-8.1,5.8-8.1,5.8-8.1h6.4V62.9z"/>
	<g>
		<rect x="155.4" y="46.6" class="st0" width="1.1" height="0.6"/>
		<rect x="162.6" y="46.6" class="st0" width="1.1" height="0.6"/>
	</g>
	<g>
		<path class="st2" d="M147,92c-0.4-0.1-0.6-0.3-0.8-0.6c-0.2-0.3-0.3-0.6-0.3-0.9l0-0.2h1.2l0,0.1c0,0.2,0.1,0.4,0.3,0.6
			c0.2,0.1,0.5,0.2,0.9,0.2c0.4,0,0.7-0.1,0.9-0.2c0.2-0.1,0.3-0.2,0.3-0.4c0-0.2-0.1-0.3-0.2-0.4c-0.1-0.1-0.3-0.2-0.4-0.2
			c-0.2-0.1-0.4-0.1-0.7-0.2c-0.4-0.1-0.8-0.2-1.1-0.4c-0.3-0.1-0.5-0.3-0.7-0.5S146,88.4,146,88c0-0.5,0.2-0.9,0.6-1.2
			c0.4-0.3,1-0.4,1.6-0.4c0.6,0,1.2,0.1,1.6,0.4c0.4,0.3,0.6,0.7,0.6,1.2v0.1h-1.2v-0.1c0-0.2-0.1-0.4-0.3-0.5
			c-0.2-0.1-0.4-0.2-0.8-0.2c-0.3,0-0.6,0-0.8,0.1c-0.2,0.1-0.3,0.2-0.3,0.4c0,0.1,0.1,0.2,0.2,0.3c0.1,0.1,0.2,0.2,0.4,0.2
			c0.2,0.1,0.4,0.1,0.7,0.2c0.4,0.1,0.8,0.2,1.1,0.4c0.3,0.1,0.5,0.3,0.7,0.5c0.2,0.2,0.3,0.5,0.3,0.9c0,0.6-0.2,1-0.6,1.3
			c-0.4,0.3-1,0.4-1.7,0.4C147.7,92.2,147.4,92.1,147,92z"/>
		<path class="st2" d="M151.4,91h1.1v1.1h-1.1V91z"/>
		<path class="st2" d="M157.2,86.6h1.5l2.2,5.5h-1.3l-0.4-1.1h-2.5l-0.4,1.1h-1.2L157.2,86.6z M158.8,90.1l-0.5-1.4
			c0-0.1-0.1-0.3-0.2-0.6c-0.1-0.3-0.1-0.4-0.2-0.5h0c0,0.1-0.1,0.3-0.2,0.5c-0.1,0.3-0.1,0.5-0.2,0.6l-0.5,1.4H158.8z"/>
		<path class="st2" d="M161.4,91h1.1v1.1h-1.1V91z"/>
		<path class="st2" d="M165.9,86.6h4.3v1h-3.2v1.2h2.8v1h-2.8v1.3h3.2v1h-4.4V86.6z"/>
		<path class="st2" d="M171.3,91h1.1v1.1h-1.1V91z"/>
		<path class="st2" d="M175.5,89.3c0-1,0.2-1.7,0.7-2.1s1.1-0.7,2-0.7c0.5,0,0.9,0.1,1.3,0.2c0.4,0.2,0.7,0.4,0.9,0.7
			c0.2,0.3,0.3,0.7,0.3,1.2h-1.2c0-0.4-0.1-0.6-0.3-0.9c-0.2-0.2-0.5-0.3-0.9-0.3c-0.5,0-0.9,0.2-1.1,0.5c-0.2,0.3-0.4,0.7-0.4,1.3
			v0.2c0,1.2,0.5,1.7,1.5,1.7c0.4,0,0.7-0.1,0.9-0.3c0.2-0.2,0.4-0.5,0.4-0.8h1.2c0,0.5-0.1,0.9-0.3,1.2c-0.2,0.3-0.5,0.6-0.9,0.7
			c-0.4,0.2-0.8,0.2-1.3,0.2C176.4,92.2,175.5,91.2,175.5,89.3z"/>
		<path class="st2" d="M181.6,91h1.1v1.1h-1.1V91z"/>
		<path class="st2" d="M187.4,86.6h1.5l2.2,5.5h-1.3l-0.4-1.1h-2.5l-0.4,1.1h-1.2L187.4,86.6z M189,90.1l-0.5-1.4
			c0-0.1-0.1-0.3-0.2-0.6c-0.1-0.3-0.1-0.4-0.2-0.5h0c0,0.1-0.1,0.3-0.2,0.5c-0.1,0.3-0.1,0.5-0.2,0.6l-0.5,1.4H189z"/>
		<path class="st2" d="M191.6,91h1.1v1.1h-1.1V91z"/>
	</g>
</g>
</svg>
